<?xml version="1.0" encoding="UTF-8"?>
<svg width="1200" height="630" viewBox="0 0 1200 630" xmlns="http://www.w3.org/2000/svg">
  <defs>
    <linearGradient id="bg" x1="0" y1="0" x2="1" y2="1">
      <stop offset="0%" stop-color="#0b0b0f"/>
      <stop offset="100%" stop-color="#101118"/>
    </linearGradient>
    <linearGradient id="accent" x1="0" y1="0" x2="1" y2="0">
      <stop offset="0%" stop-color="#be123c"/>
      <stop offset="100%" stop-color="#ff7b8a"/>
    </linearGradient>
  </defs>
  <rect width="1200" height="630" fill="url(#bg)"/>
  <!-- City skyline -->
  <g fill="#15151b">
    <rect x="140" y="330" width="80" height="180"/>
    <rect x="240" y="290" width="70" height="220"/>
    <rect x="330" y="350" width="100" height="160"/>
    <rect x="460" y="310" width="90" height="200"/>
    <rect x="570" y="260" width="110" height="250"/>
    <rect x="700" y="300" width="90" height="210"/>
    <rect x="810" y="340" width="70" height="170"/>
    <rect x="900" y="320" width="120" height="190"/>
  </g>
  <!-- AQI bars -->
  <g opacity=".9">
    <rect x="180" y="200" width="24" height="120" fill="#ff7b8a"/>
    <rect x="220" y="220" width="24" height="100" fill="#be123c"/>
    <rect x="260" y="240" width="24" height="80" fill="#ff7b8a"/>
  </g>
  <polyline points="150,180 260,170 380,200 500,160 620,190 740,150 860,170 980,140" fill="none" stroke="url(#accent)" stroke-width="6"/>
  <text x="80" y="600" font-family="Segoe UI, Arial" font-size="18" fill="#9ca3af">Air Quality · EDA · Tendencias · Mapas</text>
</svg>
