<?xml version="1.0" encoding="UTF-8"?>
<svg width="1200" height="630" viewBox="0 0 1200 630" xmlns="http://www.w3.org/2000/svg">
  <defs>
    <linearGradient id="bg" x1="0" y1="0" x2="1" y2="1">
      <stop offset="0%" stop-color="#0b0b0f"/>
      <stop offset="100%" stop-color="#101017"/>
    </linearGradient>
    <linearGradient id="accent" x1="0" y1="0" x2="1" y2="0">
      <stop offset="0%" stop-color="#be123c"/>
      <stop offset="100%" stop-color="#ff7b8a"/>
    </linearGradient>
  </defs>
  <rect width="1200" height="630" fill="url(#bg)"/>
  <!-- ROC curve style -->
  <rect x="120" y="120" width="500" height="360" rx="12" fill="#13131a" stroke="#23232b"/>
  <polyline points="140,460 200,390 260,360 340,300 420,240 520,200 600,180" fill="none" stroke="url(#accent)" stroke-width="6"/>
  <line x1="140" y1="460" x2="620" y2="180" stroke="#2a2a33" stroke-width="2" stroke-dasharray="6 8"/>
  <!-- Confusion matrix blocks -->
  <g opacity=".9">
    <rect x="720" y="180" width="160" height="140" fill="#15151b" stroke="#282830"/>
    <rect x="900" y="180" width="160" height="140" fill="#15151b" stroke="#282830"/>
    <rect x="720" y="340" width="160" height="140" fill="#15151b" stroke="#282830"/>
    <rect x="900" y="340" width="160" height="140" fill="#15151b" stroke="#282830"/>
    <text x="740" y="260" font-family="Segoe UI, Arial" font-size="28" fill="#e5e7eb">TP</text>
    <text x="980" y="260" font-family="Segoe UI, Arial" font-size="28" fill="#e5e7eb">FP</text>
    <text x="740" y="420" font-family="Segoe UI, Arial" font-size="28" fill="#e5e7eb">FN</text>
    <text x="980" y="420" font-family="Segoe UI, Arial" font-size="28" fill="#e5e7eb">TN</text>
  </g>
  <!-- Labels -->
  <text x="120" y="600" font-family="Segoe UI, Arial" font-size="18" fill="#9ca3af">Credit Scoring · Kaggle GiveMeSomeCredit · SMOTE/ADASYN · XGBoost/Optuna</text>
</svg>
