<svg xmlns="http://www.w3.org/2000/svg" viewBox="0 0 400 300" role="img" aria-labelledby="title desc">
  <title>Aplicaci贸n de Gesti贸n de Posts y Comentarios - Django</title>
  <desc>Ilustraci贸n de una aplicaci贸n web CRUD con Django, mostrando posts y comentarios</desc>
  <defs>
    <linearGradient id="bgDjango" x1="0" y1="0" x2="0" y2="1">
      <stop offset="0%" stop-color="#092e20" />
      <stop offset="100%" stop-color="#0c4b33" />
    </linearGradient>
    <linearGradient id="cardGrad" x1="0" y1="0" x2="0" y2="1">
      <stop offset="0%" stop-color="#ffffff" />
      <stop offset="100%" stop-color="#f0f0f0" />
    </linearGradient>
  </defs>
  
  <!-- Background -->
  <rect width="400" height="300" fill="url(#bgDjango)" />
  
  <!-- Browser window frame -->
  <rect x="20" y="20" width="360" height="260" rx="12" fill="#1f2937" opacity="0.9" />
  <rect x="20" y="20" width="360" height="32" rx="12" fill="#374151" />
  <circle cx="36" cy="36" r="5" fill="#ef4444" />
  <circle cx="52" cy="36" r="5" fill="#fbbf24" />
  <circle cx="68" cy="36" r="5" fill="#10b981" />
  
  <!-- Main content area -->
  <rect x="30" y="62" width="340" height="208" rx="8" fill="#111827" />
  
  <!-- Post card 1 -->
  <g opacity="0.95">
    <rect x="45" y="75" width="310" height="60" rx="8" fill="url(#cardGrad)" />
    <rect x="55" y="85" width="40" height="40" rx="20" fill="#3b82f6" opacity="0.2" />
    <circle cx="75" cy="105" r="15" fill="#3b82f6" />
    <text x="75" y="112" font-family="Arial, sans-serif" font-size="20" font-weight="bold" fill="#fff" text-anchor="middle">A</text>
    <rect x="105" y="88" width="180" height="10" rx="5" fill="#6b7280" />
    <rect x="105" y="105" width="120" height="8" rx="4" fill="#9ca3af" />
    <rect x="105" y="118" width="140" height="6" rx="3" fill="#d1d5db" />
    <g transform="translate(300, 95)">
      <path d="M0,5 L5,0 L10,5 M5,0 L5,15" stroke="#10b981" stroke-width="2" fill="none" stroke-linecap="round" />
      <text x="15" y="12" font-family="Arial, sans-serif" font-size="12" fill="#10b981" font-weight="bold">12</text>
    </g>
  </g>
  
  <!-- Post card 2 -->
  <g opacity="0.85">
    <rect x="45" y="145" width="310" height="60" rx="8" fill="url(#cardGrad)" />
    <rect x="55" y="155" width="40" height="40" rx="20" fill="#8b5cf6" opacity="0.2" />
    <circle cx="75" cy="175" r="15" fill="#8b5cf6" />
    <text x="75" y="182" font-family="Arial, sans-serif" font-size="20" font-weight="bold" fill="#fff" text-anchor="middle">B</text>
    <rect x="105" y="158" width="160" height="10" rx="5" fill="#6b7280" />
    <rect x="105" y="175" width="140" height="8" rx="4" fill="#9ca3af" />
    <rect x="105" y="188" width="100" height="6" rx="3" fill="#d1d5db" />
    <g transform="translate(300, 165)">
      <path d="M0,5 L5,0 L10,5 M5,0 L5,15" stroke="#10b981" stroke-width="2" fill="none" stroke-linecap="round" />
      <text x="15" y="12" font-family="Arial, sans-serif" font-size="12" fill="#10b981" font-weight="bold">8</text>
    </g>
  </g>
  
  <!-- Post card 3 (partial) -->
  <g opacity="0.7">
    <rect x="45" y="215" width="310" height="45" rx="8" fill="url(#cardGrad)" />
    <rect x="55" y="225" width="40" height="30" rx="15" fill="#ec4899" opacity="0.2" />
    <circle cx="75" cy="240" r="12" fill="#ec4899" />
    <text x="75" y="246" font-family="Arial, sans-serif" font-size="16" font-weight="bold" fill="#fff" text-anchor="middle">C</text>
    <rect x="105" y="228" width="150" height="8" rx="4" fill="#6b7280" />
    <rect x="105" y="242" width="120" height="6" rx="3" fill="#9ca3af" />
  </g>
  
  <!-- Django logo hint -->
  <g transform="translate(320, 240)" opacity="0.6">
    <rect x="0" y="0" width="20" height="20" rx="3" fill="#092e20" />
    <path d="M6,4 L6,16 M10,3 Q10,5 12,5 Q14,5 14,7 Q14,9 12,9 Q10,9 10,11 L10,16 M10,16 Q10,14 12,14 Q14,14 14,14" stroke="#fff" stroke-width="1.5" fill="none" stroke-linecap="round" />
  </g>
  
  <!-- Add button -->
  <circle cx="360" cy="250" r="18" fill="#10b981" opacity="0.9" />
  <path d="M360,240 L360,260 M350,250 L370,250" stroke="#fff" stroke-width="3" stroke-linecap="round" />
</svg>
