<?xml version="1.0" encoding="UTF-8"?>
<svg width="1200" height="630" viewBox="0 0 1200 630" xmlns="http://www.w3.org/2000/svg">
  <defs>
    <linearGradient id="bg" x1="0" y1="0" x2="1" y2="1">
      <stop offset="0%" stop-color="#0b0b0f"/>
      <stop offset="100%" stop-color="#121217"/>
    </linearGradient>
    <linearGradient id="accent" x1="0" y1="0" x2="1" y2="0">
      <stop offset="0%" stop-color="#be123c"/>
      <stop offset="100%" stop-color="#ff7b8a"/>
    </linearGradient>
  </defs>
  <rect width="1200" height="630" fill="url(#bg)"/>
  <!-- Django card style -->
  <rect x="140" y="120" width="920" height="400" rx="20" fill="#131318" stroke="#23232a"/>
  <rect x="140" y="120" width="920" height="64" rx="20" fill="#17171d"/>
  <text x="170" y="160" font-family="Segoe UI, Arial" font-weight="600" font-size="24" fill="#e5e7eb">Posts & Comentarios (Django)</text>
  <!-- DB schema lines -->
  <g stroke="#2a2a33" stroke-width="2">
    <rect x="200" y="240" width="220" height="140" rx="10" fill="#101014"/>
    <rect x="520" y="240" width="220" height="140" rx="10" fill="#101014"/>
    <rect x="840" y="240" width="180" height="140" rx="10" fill="#101014"/>
    <line x1="420" y1="310" x2="520" y2="310"/>
    <line x1="740" y1="310" x2="840" y2="310"/>
  </g>
  <text x="230" y="300" font-family="Segoe UI, Arial" font-size="18" fill="#9ca3af">Post</text>
  <text x="560" y="300" font-family="Segoe UI, Arial" font-size="18" fill="#9ca3af">Comentario</text>
  <text x="870" y="300" font-family="Segoe UI, Arial" font-size="18" fill="#9ca3af">Usuario</text>
  <circle cx="260" cy="420" r="6" fill="url(#accent)"/>
  <circle cx="580" cy="420" r="6" fill="url(#accent)"/>
  <circle cx="900" cy="420" r="6" fill="url(#accent)"/>
  <text x="140" y="600" font-family="Segoe UI, Arial" font-size="18" fill="#9ca3af">Django · SQLite · CRUD · Relaciones</text>
</svg>
