<?xml version="1.0" encoding="UTF-8"?>
<svg width="1200" height="630" viewBox="0 0 1200 630" xmlns="http://www.w3.org/2000/svg">
  <defs>
    <linearGradient id="g1" x1="0" y1="0" x2="1" y2="1">
      <stop offset="0%" stop-color="#0b0b0f"/>
      <stop offset="100%" stop-color="#1a0f12"/>
    </linearGradient>
    <linearGradient id="accent" x1="0" y1="0" x2="1" y2="0">
      <stop offset="0%" stop-color="#be123c"/>
      <stop offset="100%" stop-color="#ff7b8a"/>
    </linearGradient>
  </defs>
  <rect width="1200" height="630" fill="url(#g1)"/>
  <!-- Dashboard frame -->
  <rect x="80" y="80" width="1040" height="470" rx="16" fill="#121216" stroke="#2a2a30"/>
  <rect x="80" y="80" width="1040" height="56" rx="16" fill="#17171c"/>
  <circle cx="112" cy="108" r="6" fill="#ff5f57"/>
  <circle cx="132" cy="108" r="6" fill="#febc2e"/>
  <circle cx="152" cy="108" r="6" fill="#28c840"/>
  <!-- KPIs -->
  <g opacity=".95">
    <rect x="110" y="160" width="250" height="80" rx="12" fill="#15151a" stroke="#25252b"/>
    <rect x="390" y="160" width="250" height="80" rx="12" fill="#15151a" stroke="#25252b"/>
    <rect x="670" y="160" width="250" height="80" rx="12" fill="#15151a" stroke="#25252b"/>
    <rect x="950" y="160" width="150" height="80" rx="12" fill="#15151a" stroke="#25252b"/>
    <text x="130" y="205" font-family="Segoe UI, Arial" font-size="20" fill="#e5e7eb">Total conversiones</text>
    <text x="410" y="205" font-family="Segoe UI, Arial" font-size="20" fill="#e5e7eb">Promedio mensual</text>
    <text x="690" y="205" font-family="Segoe UI, Arial" font-size="20" fill="#e5e7eb">Top municipio</text>
  </g>
  <!-- Trend line -->
  <polyline points="120,350 200,320 280,360 360,300 440,330 520,270 600,290 680,260 760,300 840,250 920,280 1000,240 1100,260"
            fill="none" stroke="url(#accent)" stroke-width="6" stroke-linecap="round"/>
  <!-- Bars top 10 -->
  <g>
    <rect x="140" y="420" width="30" height="80" fill="#be123c" opacity=".8"/>
    <rect x="190" y="400" width="30" height="100" fill="#be123c" opacity=".7"/>
    <rect x="240" y="380" width="30" height="120" fill="#ff7b8a" opacity=".7"/>
    <rect x="290" y="410" width="30" height="90" fill="#be123c" opacity=".7"/>
    <rect x="340" y="390" width="30" height="110" fill="#ff7b8a" opacity=".7"/>
  </g>
  <!-- Map marker stylized -->
  <g opacity=".85">
    <circle cx="980" cy="420" r="70" fill="#141419" stroke="#28282f"/>
    <path d="M980 360c-35 0-64 29-64 64 0 47 64 116 64 116s64-69 64-116c0-35-29-64-64-64zm0 86a22 22 0 1 1 0-44 22 22 0 0 1 0 44z" fill="url(#accent)"/>
  </g>
  <text x="80" y="600" font-family="Segoe UI, Arial" font-size="18" fill="#9ca3af">GNCV 路 Dash 路 KPIs 路 Tendencias 路 Mapa</text>
</svg>
