<svg xmlns="http://www.w3.org/2000/svg" viewBox="0 0 800 600" role="img" aria-labelledby="n8n-title">
  <title id="n8n-title">Sistema de Automatización n8n - Bitcoin Alert Bot</title>
  <defs>
    <linearGradient id="bgGradN8n" x1="0%" y1="0%" x2="100%" y2="100%">
      <stop offset="0%" style="stop-color:#0f172a;stop-opacity:1" />
      <stop offset="100%" style="stop-color:#1e293b;stop-opacity:1" />
    </linearGradient>
    <radialGradient id="btcGlow" cx="50%" cy="50%" r="50%">
      <stop offset="0%" style="stop-color:#f59e0b;stop-opacity:1" />
      <stop offset="100%" style="stop-color:#d97706;stop-opacity:0.5" />
    </radialGradient>
  </defs>
  
  <!-- Background -->
  <rect width="800" height="600" fill="url(#bgGradN8n)"/>
  
  <!-- Decorative circuits -->
  <g opacity="0.1" stroke="#64748b" stroke-width="1" fill="none">
    <circle cx="100" cy="100" r="30"/>
    <circle cx="700" cy="500" r="40"/>
    <path d="M50 300 L150 300 L150 350 M650 200 L750 200 L750 250"/>
  </g>
  
  <!-- Title -->
  <text x="400" y="50" font-family="Arial, sans-serif" font-size="24" font-weight="bold" fill="#fff" text-anchor="middle">Sistema de Automatización Bitcoin</text>
  <text x="400" y="75" font-family="Arial, sans-serif" font-size="14" fill="#94a3b8" text-anchor="middle">ETL Pipeline con n8n</text>
  
  <!-- Central n8n logo/hub -->
  <g>
    <circle cx="400" cy="300" r="60" fill="#ea384d" opacity="0.9"/>
    <text x="400" y="295" font-family="Arial, sans-serif" font-size="28" font-weight="bold" fill="#fff" text-anchor="middle">n8n</text>
    <text x="400" y="318" font-family="Arial, sans-serif" font-size="11" fill="#ffe6e9" text-anchor="middle">Orquestador</text>
  </g>
  
  <!-- Yahoo Finance API (top left) -->
  <g>
    <rect x="80" y="140" width="140" height="90" rx="8" fill="#6366f1" stroke="#818cf8" stroke-width="2"/>
    <text x="150" y="170" font-family="Arial, sans-serif" font-size="14" font-weight="bold" fill="#fff" text-anchor="middle">Yahoo Finance</text>
    <text x="150" y="190" font-family="Arial, sans-serif" font-size="11" fill="#e0e7ff" text-anchor="middle">API</text>
    
    <!-- Bitcoin symbol -->
    <circle cx="150" cy="210" r="10" fill="url(#btcGlow)"/>
    <text x="150" y="215" font-family="Arial, sans-serif" font-size="12" font-weight="bold" fill="#fff" text-anchor="middle">₿</text>
  </g>
  
  <!-- Arrow from Yahoo to n8n -->
  <path d="M220 185 L340 270" stroke="#818cf8" stroke-width="3" fill="none" marker-end="url(#arrow)" stroke-dasharray="5,5">
    <animate attributeName="stroke-dashoffset" from="0" to="10" dur="1s" repeatCount="indefinite"/>
  </path>
  <text x="270" y="220" font-family="Arial, sans-serif" font-size="10" fill="#94a3b8">Precio BTC</text>
  
  <!-- Google Sheets (top right) -->
  <g>
    <rect x="580" y="140" width="140" height="90" rx="8" fill="#0f9d58" stroke="#34a853" stroke-width="2"/>
    <text x="650" y="165" font-family="Arial, sans-serif" font-size="14" font-weight="bold" fill="#fff" text-anchor="middle">Google Sheets</text>
    <text x="650" y="185" font-family="Arial, sans-serif" font-size="11" fill="#e8f5e9" text-anchor="middle">Base de Datos</text>
    
    <!-- Spreadsheet icon -->
    <rect x="625" y="195" width="50" height="30" rx="2" fill="#fff" opacity="0.9"/>
    <path d="M635 200 L635 220 M645 200 L645 220 M655 200 L655 220 M665 200 L665 220" stroke="#0f9d58" stroke-width="1"/>
    <path d="M630 207 L670 207 M630 214 L670 214" stroke="#0f9d58" stroke-width="1"/>
  </g>
  
  <!-- Arrow from n8n to Sheets -->
  <path d="M460 270 L580 190" stroke="#34a853" stroke-width="3" fill="none" marker-end="url(#arrow)"/>
  <text x="510" y="220" font-family="Arial, sans-serif" font-size="10" fill="#94a3b8">Guardar datos</text>
  
  <!-- Telegram (bottom) -->
  <g>
    <rect x="330" y="440" width="140" height="90" rx="8" fill="#0088cc" stroke="#3ea6db" stroke-width="2"/>
    <text x="400" y="470" font-family="Arial, sans-serif" font-size="14" font-weight="bold" fill="#fff" text-anchor="middle">Telegram Bot</text>
    <text x="400" y="490" font-family="Arial, sans-serif" font-size="11" fill="#e1f5fe" text-anchor="middle">Alertas</text>
    
    <!-- Paper plane icon -->
    <path d="M385 505 L415 505 L400 515 Z" fill="#fff" opacity="0.9"/>
    <circle cx="400" cy="508" r="2" fill="#0088cc"/>
  </g>
  
  <!-- Arrow from n8n to Telegram -->
  <path d="M400 360 L400 440" stroke="#3ea6db" stroke-width="3" fill="none" marker-end="url(#arrow)"/>
  <text x="420" y="400" font-family="Arial, sans-serif" font-size="10" fill="#94a3b8">📱 Alerta</text>
  
  <!-- ETL Process boxes (left side) -->
  <g>
    <rect x="80" y="280" width="80" height="40" rx="6" fill="#64748b" stroke="#94a3b8" stroke-width="1.5"/>
    <text x="120" y="305" font-family="Arial, sans-serif" font-size="12" font-weight="bold" fill="#fff" text-anchor="middle">Extract</text>
    
    <rect x="80" y="330" width="80" height="40" rx="6" fill="#64748b" stroke="#94a3b8" stroke-width="1.5"/>
    <text x="120" y="355" font-family="Arial, sans-serif" font-size="12" font-weight="bold" fill="#fff" text-anchor="middle">Transform</text>
    
    <rect x="80" y="380" width="80" height="40" rx="6" fill="#64748b" stroke="#94a3b8" stroke-width="1.5"/>
    <text x="120" y="405" font-family="Arial, sans-serif" font-size="12" font-weight="bold" fill="#fff" text-anchor="middle">Load</text>
  </g>
  
  <!-- Automation flow info (right side) -->
  <g>
    <rect x="580" y="280" width="140" height="120" rx="8" fill="#1e293b" stroke="#475569" stroke-width="2"/>
    <text x="650" y="305" font-family="Arial, sans-serif" font-size="13" font-weight="bold" fill="#fff" text-anchor="middle">Flujo Automático</text>
    
    <text x="595" y="330" font-family="Arial, sans-serif" font-size="11" fill="#cbd5e1">⏱️ Cada hora</text>
    <text x="595" y="350" font-family="Arial, sans-serif" font-size="11" fill="#cbd5e1">📊 Consulta precio</text>
    <text x="595" y="370" font-family="Arial, sans-serif" font-size="11" fill="#cbd5e1">💾 Guarda en Excel</text>
    <text x="595" y="390" font-family="Arial, sans-serif" font-size="11" fill="#10b981">🚨 Alerta si cambio</text>
  </g>
  
  <!-- Bottom tech stack -->
  <g opacity="0.8">
    <rect x="250" y="550" width="70" height="25" rx="4" fill="#ea384d"/>
    <text x="285" y="567" font-family="Arial, sans-serif" font-size="10" fill="#fff" text-anchor="middle">n8n</text>
    
    <rect x="330" y="550" width="70" height="25" rx="4" fill="#0088cc"/>
    <text x="365" y="567" font-family="Arial, sans-serif" font-size="10" fill="#fff" text-anchor="middle">Telegram</text>
    
    <rect x="410" y="550" width="70" height="25" rx="4" fill="#0f9d58"/>
    <text x="445" y="567" font-family="Arial, sans-serif" font-size="10" fill="#fff" text-anchor="middle">Sheets</text>
    
    <rect x="490" y="550" width="60" height="25" rx="4" fill="#f59e0b"/>
    <text x="520" y="567" font-family="Arial, sans-serif" font-size="10" fill="#fff" text-anchor="middle">BTC</text>
  </g>
  
  <!-- Decorative Bitcoin price graph -->
  <g opacity="0.3">
    <path d="M200 450 L220 440 L240 455 L260 430 L280 445 L300 420" stroke="#f59e0b" stroke-width="2" fill="none"/>
  </g>
  
  <!-- Arrow marker -->
  <defs>
    <marker id="arrow" markerWidth="10" markerHeight="10" refX="9" refY="3" orient="auto">
      <polygon points="0 0, 10 3, 0 6" fill="#94a3b8"/>
    </marker>
  </defs>
</svg>
